<?xml version="1.0" encoding="utf-8"?>
<!-- Generator: Adobe Illustrator 22.1.0, SVG Export Plug-In . SVG Version: 6.00 Build 0)  -->
<svg version="1.1" id="Layer_1" xmlns="http://www.w3.org/2000/svg" xmlns:xlink="http://www.w3.org/1999/xlink" x="0px" y="0px"
	 viewBox="0 0 1763.9 692.5" style="enable-background:new 0 0 1763.9 692.5;" xml:space="preserve">
<style type="text/css">
	.st0{fill:#B1E0DF;}
	.st1{fill:#FFFFFF;}
	.st2{fill:none;}
	.st3{font-family:'ArialMT';}
	.st4{font-size:69px;}
</style>
<title>ARDC-Logo-TM-Outer</title>
<rect x="12.1" y="11.2" class="st0" width="1685" height="500"/>
<rect x="14.6" y="13.7" width="500" height="495"/>
<path d="M517.1,511.2h-505v-500h505V511.2z M17.1,506.2h495v-490h-495L17.1,506.2L17.1,506.2z"/>
<path d="M1274.6,204.9c40.1,0,60.2,30.6,60.2,61.2s-20.1,61.1-60.2,61.1h-43.9V204.9H1274.6z M1274.6,309.5
	c28.3,0,42.7-21.7,42.7-43.4s-14.3-43.6-42.7-43.6h-26.2v87H1274.6z"/>
<path d="M1469.2,222.4c11.1-11.6,26.4-18.1,42.3-18.2c28,0,50,17.5,57,45.1h-17.4c-6.5-18.4-21.5-27.6-39.6-27.6
	c-11.4,0.1-22.3,4.8-30.1,13.1c-16.8,17.5-16.8,45.1,0,62.6c7.8,8.3,18.7,13.1,30.1,13.1c18.6,0,34.3-10.7,40.6-29.2h17.3
	c-7,27.8-29.4,46.7-57.9,46.7c-16,0-31.3-6.6-42.3-18.2C1445.9,285.4,1445.9,246.9,1469.2,222.4L1469.2,222.4z"/>
<rect x="83.5" y="254.9" transform="matrix(6.457451e-03 -1 1 6.457451e-03 -4.3157 517.943)" class="st1" width="350" height="12.5"/>
<rect x="208.4" y="181.2" class="st1" width="12.5" height="165"/>
<rect x="298.4" y="201.2" class="st1" width="12.5" height="100"/>
<rect x="343.4" y="181.2" class="st1" width="12.5" height="165"/>
<rect x="163.4" y="236.2" class="st1" width="12.5" height="45"/>
<rect x="388.4" y="236.2" class="st1" width="12.5" height="45"/>
<rect x="118.4" y="206.2" class="st1" width="12.5" height="105"/>
<path d="M38.8,613l-4.3,10H24.1l20.2-46.7h9.4L74.1,623H63.7l-4.3-10H38.8z M56.1,605.2l-7-17.4l-7,17.4H56.1z"/>
<path d="M93.3,596v27h-10v-46.7h9.4l16.2,28l16.7-28h8.8V623h-10v-26.7L112.5,618h-6.9L93.3,596z"/>
<path d="M158.2,613l-4.3,10h-10.3l20.2-46.7h9.4l20.3,46.7h-10.4l-4.3-10H158.2z M175.5,605.2l-7-17.4l-7,17.4H175.5z"/>
<path d="M233.9,576.3v8.3h-14.5V623h-10v-38.3H195v-8.3h38.9V576.3z"/>
<path d="M271.9,576.3v8.3h-21.1v10.5h18.9v8.3h-18.9v11.7h21.1v7.8h-31.1v-46.7h31.1V576.3z"/>
<path d="M312.1,605.2v-28.9h10v28.9c0.1,5-2,9.8-5.7,13.2c-7.8,6.9-19.6,6.9-27.4,0c-3.8-3.3-5.9-8.1-5.7-13.2v-28.9h10v28.9
	c0,2.6,0.9,5.1,2.5,7c3.6,3.8,9.6,4,13.4,0.4c0.2-0.1,0.3-0.3,0.4-0.4C311.2,610.3,312.1,607.8,312.1,605.2z"/>
<path d="M366.4,604.5c3.8,1.7,5.8,5.3,6,10.9c0.3,2.7,0.9,5.3,1.9,7.8h-9c-1.2-0.9-2-2.9-2.3-6c0.1-2.5-0.4-4.9-1.5-7.1
	c-1-1.8-2.9-2.7-5.6-2.7h-10V623h-10v-46.7H357c5.1,0,9.2,1.6,12.2,4.8c2.9,3,4.5,6.9,4.5,11.1C373.5,597.1,371.1,601.2,366.4,604.5
	z M345.7,584.7v14.4h10.5c4,0,7.2-3.2,7.2-7.2s-3.2-7.2-7.2-7.2H345.7z"/>
<path d="M444.7,604.5c3.8,1.7,5.8,5.3,6,10.9c0.3,2.7,0.9,5.3,1.9,7.8h-9c-1.2-0.9-2-2.9-2.3-6c0.1-2.5-0.4-4.9-1.5-7.1
	c-1-1.8-2.9-2.7-5.6-2.7h-10V623h-10v-46.7h21.1c5.1,0,9.2,1.6,12.2,4.8c2.9,3,4.5,6.9,4.5,11.1
	C451.8,597.1,449.4,601.2,444.7,604.5z M424.1,584.7v14.4h10.5c4,0,7.2-3.2,7.2-7.2s-3.2-7.2-7.2-7.2H424.1z"/>
<path d="M473.4,613l-4.3,10h-10.3l20.2-46.7h9.4l20.3,46.7h-10.4l-4.3-10H473.4z M490.7,605.2l-7-17.4l-7,17.4H490.7z"/>
<path d="M536.3,576.3c7.4,0,13.5,2.2,18.1,6.6c4.6,4.3,7.1,10.5,6.9,16.8c0,6.8-2.2,12.4-6.6,16.8s-10.4,6.6-17.8,6.5H518v-46.7
	L536.3,576.3L536.3,576.3z M536.3,614.7c5,0,8.7-1.5,11.2-4.4c5-6.2,5-15,0-21.2c-2.5-2.9-6.3-4.4-11.2-4.4H528v30L536.3,614.7
	L536.3,614.7z"/>
<path d="M583.7,576.3V623h-10v-46.7H583.7z"/>
<path d="M635.1,582.3c4.4,4.4,6.6,10.2,6.6,17.3c0,7.6-2.2,13.4-6.6,17.6c-9.1,8.4-23.1,8.4-32.3,0c-4.4-4.2-6.6-10.1-6.6-17.6
	c0-7.2,2.2-13,6.6-17.3C611.8,573.6,626.1,573.6,635.1,582.3z M619,584.1c-3.5,0-6.8,1.5-9,4.1c-2.5,2.8-3.8,6.6-3.8,11.4
	s1.3,8.7,3.8,11.4c4.3,5,11.7,5.5,16.7,1.3c0.5-0.4,0.9-0.8,1.3-1.3c2.5-2.7,3.8-6.5,3.8-11.4s-1.3-8.7-3.8-11.4
	C625.7,585.6,622.4,584.1,619,584.1L619,584.1z"/>
<path d="M700.6,576.3c7.5,0,13.5,2.2,18.1,6.6c4.6,4.4,6.9,10,6.9,16.8s-2.2,12.4-6.6,16.8c-4.4,4.4-10.4,6.6-17.8,6.5h-18.9v-46.7
	L700.6,576.3L700.6,576.3z M700.6,614.7c5,0,8.7-1.5,11.2-4.4c5-6.2,5-15,0-21.2c-2.5-2.9-6.3-4.4-11.2-4.4h-8.3v30L700.6,614.7
	L700.6,614.7z"/>
<path d="M748.1,576.3V623h-10v-46.7H748.1z"/>
<path d="M796.3,604.1h-13.5v-7.8h23.6c0.5,9.8-1.5,16.8-5.8,21s-10.1,6.4-16,6.3c-6,0.1-11.8-2.1-16.1-6.3
	c-4.4-4.2-6.6-10.1-6.6-17.6c0-7.6,2.2-13.4,6.6-17.6c4.3-4.2,10.1-6.4,16.1-6.3c8.7,0,15.5,3.4,20.5,10.1l-8.7,4.9
	c-3-4.4-7-6.7-11.8-6.7c-3.4,0-6.7,1.4-9,3.9c-2.5,2.6-3.8,6.5-3.8,11.7s1.3,9.1,3.8,11.7c2.3,2.5,5.6,3.9,9,3.9
	c3.8,0,6.7-1,8.8-3.1C795.3,610,796.4,607.1,796.3,604.1z"/>
<path d="M829.8,576.3V623h-10v-46.7H829.8z"/>
<path d="M875.7,576.3v8.3h-14.5V623h-10v-38.3h-14.4v-8.3h38.9V576.3z"/>
<path d="M891.6,613l-4.3,10H877l20.2-46.7h9.4l20.3,46.7h-10.4l-4.3-10H891.6z M908.9,605.2l-7-17.4l-7,17.4H908.9z"/>
<path d="M936.1,623v-46.7h10v38.3h20v8.3L936.1,623z"/>
<path d="M1034.2,608.7l8.6,4.5c-4.5,6.9-11.2,10.4-20.1,10.4c-6,0.1-11.8-2.1-16.1-6.3c-4.4-4.2-6.6-10.1-6.6-17.6
	s2.1-13.4,6.4-17.6c4.3-4.2,9.7-6.3,16.4-6.3c8.9,0,15.5,3.3,20,9.9l-8.7,4.7c-2.3-4-6.6-6.3-11.2-6.2c-3.6-0.1-7,1.4-9.3,4.1
	c-2.3,2.8-3.5,6.6-3.5,11.4s1.2,8.7,3.5,11.4s5.7,4.3,9.3,4.1C1027.6,615.2,1031.4,613,1034.2,608.7z"/>
<path d="M1090.3,582.3c4.4,4.4,6.6,10.2,6.6,17.3c0,7.6-2.2,13.4-6.6,17.6c-9.1,8.4-23.1,8.4-32.3,0c-4.4-4.2-6.6-10.1-6.6-17.6
	c0-7.2,2.2-13,6.6-17.3C1067,573.6,1081.3,573.6,1090.3,582.3z M1074.2,584.1c-3.5,0-6.8,1.5-9,4.1c-2.5,2.8-3.8,6.6-3.8,11.4
	s1.3,8.7,3.8,11.4c4.3,5,11.7,5.5,16.7,1.3c0.5-0.4,0.9-0.8,1.3-1.3c2.5-2.7,3.8-6.5,3.8-11.4s-1.3-8.7-3.8-11.4
	C1080.9,585.6,1077.6,584.1,1074.2,584.1L1074.2,584.1z"/>
<path d="M1119.4,596v27h-10v-46.7h9.4l16.2,28l16.7-28h8.8V623h-10v-26.7l-11.9,21.7h-6.9L1119.4,596z"/>
<path d="M1185.2,596v27h-10v-46.7h9.4l16.2,28l16.7-28h8.8V623h-10v-26.7l-11.9,21.7h-6.9L1185.2,596z"/>
<path d="M1268.8,605.2v-28.9h10v28.9c0.1,5-2,9.8-5.7,13.2c-7.9,6.9-19.6,6.9-27.4,0c-3.8-3.3-5.9-8.2-5.7-13.2v-28.9h10v28.9
	c0,2.6,0.9,5.1,2.5,7c3.6,3.8,9.6,4,13.4,0.4c0.2-0.1,0.3-0.3,0.4-0.4C1268,610.3,1268.9,607.8,1268.8,605.2z"/>
<path d="M1292.4,623v-46.7h10.3l20.8,30.7v-30.7h10V623h-10.2l-20.9-30.9V623H1292.4z"/>
<path d="M1358.3,576.3V623h-10v-46.7H1358.3z"/>
<path d="M1405,608.7l8.6,4.5c-4.5,6.9-11.2,10.4-20.1,10.4c-6,0.1-11.8-2.1-16.1-6.3c-4.4-4.2-6.6-10.1-6.6-17.6s2.1-13.4,6.4-17.6
	s9.7-6.3,16.4-6.3c8.9,0,15.5,3.3,19.9,9.9l-8.7,4.7c-2.3-4-6.6-6.3-11.2-6.2c-3.6-0.1-7,1.4-9.3,4.1c-2.3,2.8-3.5,6.6-3.5,11.4
	s1.2,8.7,3.5,11.4s5.7,4.3,9.3,4.1C1398.3,615.2,1402.2,613,1405,608.7z"/>
<path d="M1433.4,613l-4.3,10h-10.3l20.2-46.7h9.4l20.3,46.7h-10.4l-4.3-10H1433.4z M1450.7,605.2l-7-17.4l-7,17.4H1450.7z"/>
<path d="M1509.1,576.3v8.3h-14.5V623h-10v-38.3h-14.4v-8.3h38.9V576.3z"/>
<path d="M1526,576.3V623h-10v-46.7H1526z"/>
<path d="M1577.4,582.3c4.4,4.4,6.6,10.2,6.6,17.3c0,7.6-2.2,13.4-6.6,17.6c-9.1,8.4-23.1,8.4-32.3,0c-4.4-4.2-6.6-10.1-6.6-17.6
	c0-7.2,2.2-13,6.6-17.3C1554.1,573.6,1568.4,573.6,1577.4,582.3z M1561.3,584.1c-3.5,0-6.8,1.5-9,4.1c-2.5,2.8-3.8,6.6-3.8,11.4
	s1.3,8.7,3.8,11.4c4.3,5,11.7,5.5,16.7,1.3c0.5-0.4,0.9-0.8,1.3-1.3c2.5-2.7,3.8-6.5,3.8-11.4s-1.3-8.7-3.8-11.4
	C1568,585.6,1564.7,584.1,1561.3,584.1L1561.3,584.1z"/>
<path d="M1596.5,623v-46.7h10.3l20.8,30.7v-30.7h10V623h-10.2l-20.9-30.9V623H1596.5z"/>
<path d="M1655.3,598.7c-3-2.2-4.7-5.7-4.6-9.3c0-3.8,1.7-7.3,4.6-9.7c3.1-2.6,7.1-3.9,12.1-3.9c7.9,0,13.7,2.9,17.6,8.8l-9.1,3.6
	c-2-2.6-5.1-4.1-8.4-4.1c-1.8-0.1-3.5,0.5-4.9,1.6c-1.1,0.9-1.8,2.3-1.8,3.7c-0.1,1.5,0.6,2.9,1.9,3.7c2.1,1,4.3,1.7,6.5,2
	c4.4,0.5,8.6,2.1,12.2,4.6c3.2,2.3,5.1,6,4.9,10c0.1,4-1.8,7.9-4.9,10.4c-3.3,2.7-7.6,4-12.8,4c-4.2,0.1-8.3-1-11.8-3.2
	c-3-1.8-5.5-4.5-7.1-7.6l8.7-3.4c2.7,3.6,6.1,5.4,10.2,5.4c2,0.1,4-0.4,5.7-1.5c1.3-0.8,2.1-2.1,2.1-3.6c0-1.6-0.8-3.1-2.2-4
	c-1.4-1-4.2-1.9-8.3-2.8C1662,602.7,1658.3,601.1,1655.3,598.7z"/>
<line class="st2" x1="1104.6" y1="126.2" x2="1104.6" y2="406.2"/>
<rect x="1100.9" y="126.2" width="7.5" height="280"/>
<path d="M730.3,292.4h-43.9c-4.7,11.2-10.8,25.9-14.7,36.1h-19.1l49.2-124.1h13L764,328.5h-19L730.3,292.4z M693.1,275.8h30.5
	l-15-43.2L693.1,275.8z"/>
<path d="M916,266.4h20.7c14.9,0,22.2-10.7,22.2-21.4c0-10.5-7.3-21.2-22.2-21.2h-27.1v104.7H892V206h44.6c26.6,0,39.9,19.6,39.9,39
	c0,17.3-10.7,33.8-31.7,37.5l38.7,46h-22.9L916,274.8V266.4z"/>
<text transform="matrix(1 0 0 1 1694.0504 60.8819)" class="st3 st4">™</text>
</svg>
