<?xml version="1.0" encoding="UTF-8" standalone="no"?>
<!-- Created with Inkscape (http://www.inkscape.org/) -->

<svg
   xmlns:dc="http://purl.org/dc/elements/1.1/"
   xmlns:cc="http://creativecommons.org/ns#"
   xmlns:rdf="http://www.w3.org/1999/02/22-rdf-syntax-ns#"
   xmlns:svg="http://www.w3.org/2000/svg"
   xmlns="http://www.w3.org/2000/svg"
   xmlns:sodipodi="http://sodipodi.sourceforge.net/DTD/sodipodi-0.dtd"
   xmlns:inkscape="http://www.inkscape.org/namespaces/inkscape"
   version="1.1"
   id="svg3922"
   width="614.40002"
   height="218.112"
   viewBox="0 0 614.40002 218.112"
   sodipodi:docname="cip.svg"
   inkscape:version="0.92.1 r15371">
  <metadata
     id="metadata3928">
    <rdf:RDF>
      <cc:Work
         rdf:about="">
        <dc:format>image/svg+xml</dc:format>
        <dc:type
           rdf:resource="http://purl.org/dc/dcmitype/StillImage" />
        <dc:title></dc:title>
      </cc:Work>
    </rdf:RDF>
  </metadata>
  <defs
     id="defs3926" />
  <sodipodi:namedview
     pagecolor="#ffffff"
     bordercolor="#666666"
     borderopacity="1"
     objecttolerance="10"
     gridtolerance="10"
     guidetolerance="10"
     inkscape:pageopacity="0"
     inkscape:pageshadow="2"
     inkscape:window-width="1920"
     inkscape:window-height="1016"
     id="namedview3924"
     showgrid="false"
     inkscape:zoom="0.92071192"
     inkscape:cx="25.941793"
     inkscape:cy="78.407884"
     inkscape:window-x="0"
     inkscape:window-y="27"
     inkscape:window-maximized="1"
     inkscape:current-layer="svg3922" />
  <g
     id="g3950"
     transform="translate(0.94498346,0.48412877)">
    <path
       style="fill:#fdfcfb;stroke-width:0.99999994"
       d="M 0,109.056 V 0 H 307.20001 614.40002 V 109.056 218.112 H 307.20001 0 Z"
       id="path3956"
       inkscape:connector-curvature="0" />
    <path
       style="fill:#f49128;stroke-width:0.99999994"
       d="m 71.232002,215.38351 c -11.263442,-1.37164 -22.6611,-5.07101 -29.909657,-9.70785 -2.616215,-1.67357 -2.586467,-1.77151 1.301656,-4.28491 19.02474,-12.29814 46.360955,-13.51942 67.304059,-3.00689 3.29561,1.65425 7.55194,4.35735 8.30492,5.27426 0.71523,0.87094 0.34672,1.13402 -5.91298,4.22137 -12.542343,6.18604 -28.291516,9.06235 -41.087998,7.50402 z M 120.384,198.50362 c -3.55802,-2.65983 -12.27859,-7.08106 -17.28,-8.76078 -18.48762,-6.20905 -40.054915,-4.87862 -56.831998,3.50579 -3.93946,1.96876 -8.377089,4.67844 -10.301463,6.29023 -0.597005,0.50003 -1.400836,0.90914 -1.786291,0.90914 -1.272666,0 -11.912247,-8.82308 -11.912247,-9.87846 0,-1.34931 15.737275,-9.68433 23.04,-12.2028 10.956631,-3.77858 21.494324,-5.56458 32.832002,-5.56458 16.629669,0 32.509337,4.01279 46.847997,11.83847 4.85498,2.64973 9.792,5.84997 9.792,6.34731 0,0.98607 -9.87481,9.86963 -10.92476,9.82812 -0.22178,-0.009 -1.78564,-1.04937 -3.47524,-2.31244 z m 16.224,-18.47467 c -1.93446,-1.25359 -2.976,-2.17574 -2.976,-2.63489 0,-0.38849 0.6048,-3.31982 1.344,-6.51406 0.7392,-3.19424 1.344,-6.05386 1.344,-6.3547 0,-0.30085 -0.57597,-0.78765 -1.27994,-1.08179 -4.3355,-1.81148 -19.22862,-16.58226 -31.11274,-30.85713 C 90.369703,116.30134 78.81214,98.921994 71.199462,83.372805 69.739786,80.391364 68.352766,77.952 68.117194,77.952 c -0.669731,0 -2.77617,5.153284 -3.767102,9.216 -0.618681,2.536531 -1.37409,9.753431 -1.37409,13.12759 0,2.07262 -0.157494,3.76841 -0.349989,3.76841 -0.631012,0 -7.792977,-9.308279 -11.818272,-15.36 C 46.00387,81.481755 41.848245,73.393774 40.113329,67.889756 l -0.690386,-2.190244 1.113504,-1.649756 c 1.872895,-2.774864 12.737891,-13.361752 18.069182,-17.606665 4.52473,-3.602707 14.375628,-10.878073 20.779573,-15.346723 1.316264,-0.918481 2.49355,-1.569619 2.616196,-1.446973 0.122646,0.122646 -0.294075,2.357706 -0.926051,4.966799 -1.602136,6.614397 -1.971425,9.495756 -1.970818,15.377361 0.0015,14.97456 5.606926,26.463449 19.449282,39.86352 6.880779,6.660929 17.228209,15.519195 17.750829,15.196195 0.16623,-0.10274 0.53369,-1.70655 0.81657,-3.56403 0.65466,-4.29869 1.6008,-7.088366 3.24501,-9.567904 1.29278,-1.949575 4.3162,-4.753336 5.12572,-4.753336 0.23146,0 0.93867,1.085019 1.57157,2.411155 1.50439,3.152164 3.88923,6.262157 9.64542,12.578245 10.37392,11.38299 13.43398,16.38321 16.00368,26.15042 0.97178,3.69366 1.04742,4.53303 1.05069,11.66018 0.003,5.82411 -0.15962,8.4822 -0.67157,10.99966 -1.54565,7.60056 -4.09344,14.8971 -7.82451,22.40834 -2.67971,5.39468 -4.65606,8.64794 -5.23102,8.61075 -0.24871,-0.0161 -1.7914,-0.8971 -3.4282,-1.9578 z M 13.619488,179.14234 C 9.8428185,173.23846 5.602084,163.08697 4.0276917,156.18146 -0.08252697,138.15345 3.5073945,113.07589 12.099797,99.793398 13.039588,98.34063 14.042274,97.152 14.327987,97.152 c 0.285713,0 1.108713,0.7344 1.82889,1.632 2.307867,2.87643 9.643481,10.27122 13.603124,13.71286 9.151746,7.95451 18.353937,14.10476 29.295046,19.57925 5.365191,2.68453 12.34643,5.77989 13.035883,5.77989 0.230711,0 0.46368,-2.69542 0.589113,-6.816 0.161476,-5.30451 0.396261,-7.53579 1.058746,-10.06186 0.900899,-3.43516 2.097546,-6.54614 2.517992,-6.54614 0.138635,0 2.268856,1.944 4.733817,4.32 11.013658,10.61616 26.303032,23.77846 43.237272,37.22206 4.99254,3.96342 5.99531,4.92194 5.14921,4.92194 -0.27993,0 -4.00057,-1.40692 -8.26809,-3.12649 -4.26752,-1.71956 -7.9912,-3.03743 -8.27483,-2.92859 -0.28364,0.10884 -2.04615,2.6516 -3.9167,5.65057 -1.87054,2.99897 -3.64587,5.54664 -3.94517,5.66149 -0.2993,0.11485 -2.34885,-0.24338 -4.55455,-0.79608 -2.205693,-0.55269 -4.355137,-1.0049 -4.776539,-1.0049 -1.091128,0 -1.355412,-0.72809 -2.299857,-6.336 -0.462397,-2.7456 -0.967599,-5.5968 -1.122673,-6.336 l -0.281952,-1.344 -13.592169,-0.10099 c -7.475689,-0.0555 -13.720623,0.0308 -13.877633,0.192 -0.157006,0.16114 -0.752034,3.14419 -1.322278,6.62899 -0.570247,3.4848 -1.183564,6.49665 -1.362923,6.693 -0.285792,0.31286 -8.231129,2.10634 -9.436389,2.13006 -0.250073,0.005 -2.048602,-2.51257 -3.996734,-5.59441 -1.948128,-3.08185 -3.773783,-5.69229 -4.057006,-5.80097 -0.537735,-0.20635 -2.05081,0.35467 -11.267586,4.17775 -14.780845,6.13104 -13.824,5.6589 -13.824,6.82127 0,0.58228 0.159738,1.55968 0.354973,2.172 0.8489,2.6624 2.402238,10.17106 2.20854,10.67583 -0.32827,0.85546 -3.542969,2.58341 -5.226233,2.80918 -1.48723,0.19948 -1.532163,0.16872 -2.917793,-1.99737 z m 420.108522,-2.45881 c -3.05975,-0.88944 -4.27257,-1.56402 -6.64197,-3.69429 -1.34465,-1.20896 -2.43686,-2.69808 -3.38281,-4.61204 -1.20096,-2.43 -1.42445,-3.30862 -1.59287,-6.26193 -0.1597,-2.80135 -0.045,-3.93214 0.62178,-6.12727 3.57131,-11.75776 19.1826,-15.38986 27.65295,-6.43372 6.04289,6.38949 6.07427,16.26077 0.0718,22.60745 -4.30184,4.54858 -10.69352,6.27624 -16.72893,4.5218 z m 9.3317,-5.64543 c 4.04375,-2.01508 6.08663,-5.93718 5.75302,-11.04507 -0.289,-4.42457 -2.36068,-7.51903 -6.24465,-9.32769 -3.49563,-1.6278 -7.84489,-0.97988 -10.88391,1.62139 -4.68698,4.01191 -5.03642,12.07403 -0.7205,16.62429 2.99789,3.16065 8.1898,4.07365 12.09604,2.12708 z m -172.15752,5.13879 c -0.1052,-0.27415 -0.14602,-7.3237 -0.0907,-15.66567 l 0.10054,-15.16722 7.45643,-0.10452 c 8.45208,-0.11847 10.38927,0.22354 13.13709,2.31937 0.90706,0.69184 2.07381,2.09844 2.61751,3.1556 0.82848,1.61087 0.98085,2.42102 0.98017,5.21185 -7.6e-4,3.00557 -0.10594,3.47533 -1.16319,5.1931 -1.24164,2.01736 -3.92221,4.07616 -6.25592,4.80482 -0.77665,0.24249 -3.57209,0.54954 -6.21209,0.68234 l -4.8,0.24144 -0.192,4.8 -0.192,4.8 -2.59727,0.11366 c -1.86013,0.0814 -2.65156,-0.0278 -2.78855,-0.38477 z m 15.39823,-15.39159 c 2.06633,-1.07461 2.96694,-2.39576 3.12913,-4.59035 0.1141,-1.54383 -0.0326,-2.30825 -0.62318,-3.24831 -1.33319,-2.12191 -2.72762,-2.59198 -7.71836,-2.60188 l -4.416,-0.009 -0.10727,5.34638 c -0.0804,4.00821 0.0157,5.43169 0.384,5.68723 0.7787,0.54029 8.06457,0.0851 9.35168,-0.58431 z m 14.93099,15.37392 c -0.10146,-0.26443 -0.13924,-7.30603 -0.0839,-15.648 l 0.10054,-15.16722 2.58694,-0.11343 2.58694,-0.11343 0.10106,13.16943 0.10106,13.16943 8.064,0.192 8.064,0.192 0.19877,1.728 c 0.3819,3.31995 1.25486,3.072 -10.81561,3.072 -8.23042,0 -10.7621,-0.11163 -10.90376,-0.48078 z m 25.4071,0.17202 c -0.10495,-0.16981 1.01275,-3.06421 2.48378,-6.432 9.91738,-22.70493 10.73834,-24.52251 11.21229,-24.8237 0.25599,-0.16268 1.36865,-0.29843 2.47258,-0.30166 2.3605,-0.007 2.39097,0.027 4.65741,5.17812 6.75239,15.34683 11.19144,25.73266 11.19144,26.18407 0,0.42167 -0.59965,0.51325 -2.78126,0.42475 l -2.78125,-0.11282 -1.37604,-3.22038 c -0.75682,-1.77121 -1.69829,-3.45601 -2.09214,-3.744 -0.85181,-0.62285 -12.85254,-0.7587 -13.9746,-0.15819 -0.37555,0.20098 -1.259,1.71298 -1.96323,3.36 -0.70423,1.64701 -1.44356,3.21057 -1.64297,3.47457 -0.4036,0.53436 -5.08985,0.6828 -5.40601,0.17124 z m 20.27409,-12.21232 c 0.33408,-0.1282 0.60741,-0.38898 0.60741,-0.57953 0,-0.19054 -0.79863,-2.20245 -1.77473,-4.47092 -0.9761,-2.26846 -2.02119,-4.70035 -2.32241,-5.40421 -0.42581,-0.99494 -0.66079,-1.18587 -1.05591,-0.85794 -0.27953,0.23198 -1.49791,2.77432 -2.70752,5.64963 -1.74422,4.14612 -2.09212,5.29576 -1.68136,5.55607 0.58904,0.37328 8.00898,0.46206 8.93452,0.1069 z m 25.42281,11.93014 c -0.13167,-0.34313 -0.2394,-6.22574 -0.2394,-13.07247 V 150.528 h -4.38857 c -5.09059,0 -5.59891,-0.25567 -5.58955,-2.81143 0.003,-0.88251 0.14454,-1.823 0.31401,-2.08998 0.24018,-0.37838 3.05424,-0.46305 12.76212,-0.384 l 12.45399,0.10141 0.11797,2.07083 c 0.0649,1.13896 -0.0576,2.24642 -0.27222,2.46103 -0.21462,0.21461 -1.47729,0.3656 -2.80597,0.33554 -1.32868,-0.0301 -3.36618,0.0721 -4.52778,0.22697 l -2.112,0.28163 -0.192,12.864 -0.192,12.864 -2.5446,0.11247 c -2.0631,0.0912 -2.58989,-0.006 -2.784,-0.51141 z m 21.50399,0 c -0.35555,-0.92658 -0.27871,-29.85657 0.0808,-30.42297 0.23981,-0.37774 2.82432,-0.46323 11.61013,-0.384 l 11.30169,0.10191 v 2.304 2.304 l -8.64,0.192 -8.64,0.192 -0.11013,4.00059 c -0.081,2.94199 0.0207,4.08356 0.384,4.31412 0.27176,0.17244 3.82879,0.31618 7.90445,0.31941 l 7.41032,0.006 -0.11432,2.4 -0.11432,2.4 -7.68,0.192 -7.68,0.192 -0.192,6.144 -0.192,6.144 -2.54461,0.11246 c -2.06308,0.0912 -2.58989,-0.006 -2.784,-0.51141 z m 67.90403,0.11016 c -0.10149,-0.26443 -0.13924,-7.30603 -0.084,-15.648 l 0.10054,-15.16722 8.5102,-0.10326 c 7.8773,-0.0956 8.67211,-0.0427 10.68745,0.71137 4.28836,1.60447 6.43197,4.62974 6.47325,9.13564 0.0376,4.10154 -2.1946,7.63113 -5.77099,9.12544 -0.70176,0.29321 -1.27591,0.66193 -1.27591,0.81938 0,0.15744 1.7111,2.70392 3.8024,5.65884 2.09134,2.95493 3.72277,5.50219 3.62535,5.66059 -0.0974,0.1584 -1.43275,0.288 -2.96748,0.288 -3.29556,0 -2.93015,0.30406 -7.51607,-6.25439 l -3.165,-4.52639 -3.3216,0.11039 -3.3216,0.11039 -0.0944,4.416 c -0.13709,6.40943 -0.008,6.144 -2.99693,6.144 -1.64851,0 -2.56362,-0.16385 -2.68523,-0.48078 z m 17.08201,-16.23805 c 1.96446,-1.15026 2.77459,-2.47995 2.77459,-4.55417 0,-2.11239 -0.73363,-3.40488 -2.46762,-4.34743 -1.01257,-0.55039 -2.21012,-0.67707 -6.42839,-0.67999 l -5.184,-0.003 -0.10799,4.96194 c -0.0805,3.70209 0.0169,5.04756 0.384,5.29914 0.27061,0.18547 2.5735,0.27872 5.11753,0.20723 3.74135,-0.10513 4.87143,-0.27395 5.91188,-0.88314 z m 15.56475,16.25572 c -0.10518,-0.27415 -0.146,-7.3237 -0.0907,-15.66567 l 0.10054,-15.16722 2.92911,-0.11131 2.92911,-0.11131 4.55678,7.11931 c 2.50621,3.91562 4.75207,7.11931 4.99085,7.11931 0.23873,0 2.35288,-2.99986 4.69812,-6.66635 2.34524,-3.66649 4.51127,-6.87154 4.81348,-7.12233 0.34003,-0.28222 1.55036,-0.41242 3.17599,-0.34165 l 2.62656,0.11433 v 15.552 15.552 l -2.58578,0.1134 -2.58582,0.11341 -0.10218,-10.44957 c -0.0693,-7.08226 -0.23639,-10.49425 -0.51863,-10.58821 -0.22902,-0.0763 -2.3712,2.80382 -4.76041,6.40016 -2.38921,3.59635 -4.55244,6.53881 -4.80718,6.53881 -0.25475,0 -2.41475,-2.9376 -4.8,-6.528 -2.38526,-3.5904 -4.48148,-6.528 -4.65823,-6.528 -0.17679,0 -0.36741,4.7088 -0.42359,10.464 l -0.10218,10.464 -2.59726,0.11366 c -1.86014,0.0814 -2.65156,-0.0278 -2.78857,-0.38477 z m 65.67383,-14.12523 c -20.41479,-0.19263 -20.736,-0.20756 -20.736,-0.96366 0,-0.76177 0.28865,-0.76879 35.56735,-0.86598 36.53564,-0.10065 37.02278,-0.0831 36.12269,1.30077 -0.35163,0.54062 -23.8542,0.78456 -50.95404,0.52887 z M 184.444,161.43325 c -0.12975,-0.33812 0.005,-0.76747 0.30005,-0.95412 0.30018,-0.19008 16.18302,-0.34196 36.10494,-0.34525 30.67785,-0.005 35.6328,0.071 36.03306,0.5533 0.25524,0.30755 0.3526,0.73955 0.21635,0.96 -0.16923,0.27383 -11.68081,0.40082 -36.33311,0.40082 -32.73272,0 -36.10731,-0.0571 -36.32129,-0.61475 z m 156.2858,-33.7544 c -1.30581,-0.28385 -3.12021,-0.85326 -4.032,-1.26535 -1.90917,-0.86287 -4.92179,-2.99696 -4.92179,-3.48652 0,-0.18272 0.6792,-1.08883 1.50933,-2.01359 l 1.50933,-1.68139 1.27467,0.74802 c 4.11133,2.41268 5.46073,2.88265 8.30174,2.89137 4.20669,0.0129 5.83693,-1.08506 5.83693,-3.93121 0,-2.19355 -1.83507,-3.4102 -7.104,-4.70996 -3.86361,-0.95309 -7.11147,-2.52694 -8.51198,-4.12473 -3.462,-3.94969 -1.85605,-10.92089 3.06461,-13.302938 2.78792,-1.34961 5.44155,-1.654978 8.99336,-1.034914 3.11124,0.543152 7.53314,2.485939 7.91336,3.476782 0.21532,0.561116 -1.964,4.05158 -2.52967,4.05158 -0.21309,0 -1.52513,-0.56008 -2.91564,-1.24463 -1.98021,-0.97486 -3.13414,-1.27523 -5.32373,-1.3858 -2.75989,-0.13937 -2.81268,-0.124 -4.14291,1.20623 -1.40908,1.40909 -1.6274,2.30954 -0.93068,3.83867 0.59059,1.29621 2.14686,2.10244 6.41731,3.32452 5.13584,1.46973 7.57066,2.58629 8.87212,4.06857 1.52983,1.74238 2.09434,3.68758 1.85051,6.37658 -0.39436,4.34904 -3.03564,7.10848 -7.90004,8.25343 -2.65508,0.62493 -4.15646,0.61357 -7.23083,-0.0547 z m 92.51752,0.0233 c -2.84912,-0.69015 -5.45337,-2.42028 -6.91465,-4.59376 -2.23695,-3.32715 -2.421,-4.63419 -2.30695,-16.38036 l 0.10229,-10.53604 2.40496,-0.114451 c 1.7088,-0.08132 2.45614,0.02984 2.58163,0.384 0.0971,0.274149 0.23013,4.991251 0.29549,10.482451 0.11374,9.55695 0.15725,10.0631 1.01691,11.83334 1.21881,2.50987 3.23562,3.81526 6.22898,4.03178 3.90539,0.28249 6.45262,-1.12106 7.89519,-4.35036 0.58203,-1.30292 0.71336,-3.07396 0.88232,-11.89876 l 0.19852,-10.368 2.26395,-0.116832 c 1.2452,-0.06426 2.42535,0.04454 2.62261,0.24177 0.2049,0.20493 0.35101,4.698022 0.34091,10.484832 -0.0196,11.2281 -0.27022,12.88817 -2.43298,16.11592 -2.87332,4.28822 -9.11113,6.25437 -15.17918,4.78448 z m 35.92885,-0.0106 c -4.59256,-1.26489 -8.21929,-4.14567 -10.2124,-8.11197 -2.07449,-4.1281 -2.47673,-7.87454 -1.30084,-12.11512 0.90881,-3.27749 2.22965,-5.49382 4.58976,-7.701425 3.77502,-3.531103 9.11074,-5.123121 14.09337,-4.205042 4.11998,0.759137 9.02996,3.381592 9.02996,4.822967 0,0.64546 -2.63847,3.68298 -3.19915,3.68298 -0.24821,0 -1.26962,-0.5818 -2.26978,-1.29289 -7.42537,-5.279218 -16.80307,-0.27149 -16.80307,8.9729 0,6.41974 4.3963,11.14751 10.34737,11.12757 2.77114,-0.009 4.60589,-0.67179 7.3344,-2.64832 l 1.67213,-1.21126 1.73407,1.73408 1.73407,1.73407 -1.2836,1.32431 c -3.52017,3.63192 -10.25096,5.32357 -15.46629,3.88716 z m 60.93585,0.0478 c -4.3667,-1.13776 -7.15715,-3.54938 -8.6978,-7.51698 -0.75732,-1.95027 -0.84775,-3.04562 -1.00788,-12.20977 -0.0968,-5.53702 -0.0641,-10.512794 0.0725,-11.057283 0.24004,-0.956348 0.33615,-0.986131 2.82881,-0.876699 l 2.58037,0.11328 0.19591,10.560002 c 0.10779,5.808 0.34933,10.9056 0.5368,11.328 1.36604,3.07787 4.05193,4.78467 7.52329,4.78075 3.1455,-0.003 5.27516,-1.22508 6.61828,-3.79611 l 1.06172,-2.03234 0.006,-10.03615 c 0.004,-5.51989 0.14857,-10.26111 0.32298,-10.536058 0.22019,-0.347159 1.06906,-0.464494 2.77812,-0.384 l 2.46102,0.115906 0.11478,9.600002 c 0.0724,6.05626 -0.0464,10.4505 -0.32179,11.904 -0.8746,4.61573 -3.84415,8.28381 -7.74171,9.56273 -2.69818,0.88536 -6.93965,1.10387 -9.33128,0.48072 z m -343.69661,-0.73223 c -0.10147,-0.26443 -0.13925,-7.30603 -0.084,-15.648 l 0.10055,-15.16721 2.26396,-0.116832 c 1.24519,-0.06426 2.39735,0.02216 2.56037,0.192 0.31382,0.326976 0.5956,16.537312 0.44759,25.748832 l -0.0879,5.472 h -2.50805 c -1.65437,0 -2.57085,-0.16365 -2.69255,-0.48078 z m 13.824,0 c -0.10147,-0.26443 -0.13925,-7.30603 -0.0839,-15.648 l 0.1005,-15.16712 h 2.66408 2.66409 l 7.70391,10.05177 c 4.23715,5.52847 7.91992,10.14545 8.18392,10.25994 0.37687,0.16346 0.48126,-1.91371 0.48588,-9.66776 0.003,-5.43177 0.14857,-10.100909 0.32296,-10.375857 0.2202,-0.347159 1.06908,-0.464494 2.77812,-0.384 l 2.46104,0.115907 v 15.552 15.552 h -2.40212 -2.40212 l -7.96588,-10.34195 c -4.38124,-5.68807 -8.18188,-10.41127 -8.44588,-10.496 -0.37612,-0.12071 -0.48,2.13819 -0.48,10.43795 v 10.592 h -2.70005 c -1.80814,0 -2.761,-0.15882 -2.88455,-0.48078 z m 35.712,0 c -0.10147,-0.26443 -0.13924,-7.30603 -0.084,-15.648 l 0.1006,-15.16712 h 11.52 11.52 v 2.304 2.304 l -8.53441,0.10332 c -8.22093,0.0995 -8.55024,0.13291 -8.96556,0.90893 -0.48302,0.90254 -0.35736,6.98634 0.1549,7.49997 0.17541,0.17588 3.71781,0.40618 7.872,0.51178 l 7.55307,0.192 v 2.304 2.304 l -7.73634,0.10383 -7.73633,0.10382 -0.25042,0.99776 c -0.13774,0.54876 -0.2327,3.09404 -0.21102,5.65617 0.0216,2.56213 0.0301,4.96082 0.0187,5.33042 -0.0175,0.5693 -0.40394,0.672 -2.5287,0.672 -1.65437,0 -2.57085,-0.16365 -2.69254,-0.48078 z m 29.57478,0.0177 c -0.1052,-0.27415 -0.14602,-7.3237 -0.0907,-15.66567 l 0.10054,-15.16721 8.5102,-0.103258 c 7.87729,-0.09558 8.67212,-0.04267 10.68747,0.711368 4.33906,1.623448 6.33833,4.52029 6.33833,9.18389 0,4.26521 -1.59715,6.93812 -5.28,8.83636 -0.8976,0.46265 -1.632,0.96719 -1.632,1.12119 0,0.15401 1.6416,2.58511 3.648,5.40245 2.0064,2.81734 3.648,5.35228 3.648,5.63321 0,0.38151 -0.76013,0.51079 -3.00331,0.51079 h -3.00332 l -3.74466,-5.376 -3.74464,-5.376 h -3.4172 -3.4172 l -0.10683,5.28 -0.10684,5.28 -2.59727,0.11366 c -1.86013,0.0814 -2.65156,-0.0278 -2.78855,-0.38477 z m 17.36496,-16.41598 c 1.97792,-1.20602 2.54231,-2.38712 2.33504,-4.88655 -0.31387,-3.78488 -2.4655,-4.82616 -9.6022,-4.647 l -4.32798,0.10865 -0.10715,5.088 -0.10714,5.088 5.29114,-0.002 c 4.5671,-0.001 5.45907,-0.10382 6.51829,-0.74966 z m 12.78886,16.40635 c 0,-0.27853 1.62195,-4.2173 3.60433,-8.75283 1.98237,-4.53553 4.84528,-11.09762 6.36201,-14.58242 3.64272,-8.369464 3.41904,-8.064 5.90512,-8.064 1.11636,0 2.31518,0.216 2.66403,0.48 0.34886,0.264 2.34962,4.4544 4.44614,9.312 2.09653,4.8576 5.04093,11.65794 6.54312,15.11186 1.50219,3.45393 2.73125,6.43473 2.73125,6.624 0,0.18928 -1.28079,0.34414 -2.8462,0.34414 h -2.8462 l -1.4474,-3.49197 c -1.07635,-2.59677 -1.68207,-3.58118 -2.3628,-3.84 -1.00106,-0.3806 -12.06647,-0.47459 -13.41117,-0.11391 -0.61104,0.1639 -1.2371,1.16265 -2.34363,3.73876 l -1.50986,3.51512 -2.74437,0.11282 c -2.07284,0.0852 -2.74437,-0.0111 -2.74437,-0.39357 z m 20.12859,-12.04833 c 0.33408,-0.1282 0.60747,-0.517 0.60755,-0.864 1.7e-4,-0.8008 -3.79356,-9.6702 -4.43632,-10.37172 -0.5882,-0.64197 -0.53893,-0.72793 -3.19636,5.57595 -2.12944,5.05139 -2.20767,5.34792 -1.48746,5.63853 0.69324,0.27973 7.79282,0.29744 8.51259,0.0212 z m 54.55507,12.05874 c -0.10218,-0.27371 -0.22941,-6.11366 -0.28272,-12.97766 l -0.0969,-12.48 -4.39262,-0.10926 c -2.52567,-0.0628 -4.61394,-0.29292 -4.91333,-0.5414 -0.35311,-0.29305 -0.48423,-1.123086 -0.40738,-2.578742 L 360.38401,96.192 h 12.672 12.672 l 0.11797,2.070831 c 0.0661,1.159093 -0.0685,2.258029 -0.30547,2.495999 -0.23666,0.23761 -2.40617,0.50987 -4.91798,0.61717 l -4.49452,0.192 -0.192,12.864 -0.192,12.864 -2.59727,0.11366 c -1.86007,0.0814 -2.65001,-0.0276 -2.78307,-0.384 z m 21.49175,-0.0184 c -0.10149,-0.26443 -0.13923,-7.30603 -0.0839,-15.648 l 0.10053,-15.16723 8.256,-0.111187 c 8.99186,-0.121095 10.41166,0.07965 13.23737,1.871654 4.23233,2.684073 5.50168,8.988673 2.69779,13.399433 -1.07962,1.6983 -1.8798,2.40302 -3.93516,3.46579 -0.8976,0.46412 -1.632,0.96986 -1.632,1.12386 0,0.15401 1.6416,2.58511 3.648,5.40245 2.0064,2.81734 3.648,5.35228 3.648,5.63321 0,0.38137 -0.75851,0.51079 -2.99358,0.51079 h -2.99363 l -3.77756,-5.376 -3.77752,-5.376 h -3.37897 c -2.88503,0 -3.40854,0.0982 -3.58119,0.672 -0.1112,0.3696 -0.193,2.4864 -0.18178,4.704 0.0111,2.2176 0.004,4.3344 -0.0157,4.704 -0.0303,0.56772 -0.42528,0.672 -2.54415,0.672 -1.65435,0 -2.57084,-0.16365 -2.69253,-0.48078 z m 17.08977,-16.21555 c 1.90883,-0.98709 2.70282,-2.36693 2.70282,-4.697 0,-1.78184 -0.16005,-2.2498 -1.08626,-3.17601 -1.49218,-1.49219 -3.36921,-1.92202 -8.40422,-1.92452 -5.55091,-0.003 -5.43191,-0.19892 -4.83256,7.96586 l 0.17618,2.4 h 5.17251 c 3.8157,0 5.46079,-0.14908 6.27153,-0.56833 z m 90.63883,4.24773 c 0,-6.84673 -0.10487,-12.72193 -0.23309,-13.056 -0.19116,-0.49813 -0.93381,-0.60835 -4.128,-0.61265 -5.71557,-0.008 -5.68044,0.0102 -5.54396,-2.828004 l 0.11305,-2.350756 12.454,-0.101411 c 9.70787,-0.07905 12.52193,0.0056 12.76212,0.384 0.16946,0.266976 0.31078,1.207469 0.314,2.089982 0.009,2.555759 -0.49897,2.811429 -5.58954,2.811429 h -4.38858 v 12.44859 c 0,6.84673 -0.10487,12.72193 -0.23309,13.056 -0.18133,0.47259 -0.82061,0.60741 -2.88,0.60741 h -2.64691 z m 55.68,-3.27787 V 96 h 8.3783 c 10.02571,0 11.48068,0.300872 14.32612,2.962445 4.90261,4.585805 3.6508,12.790925 -2.42419,15.890175 -0.80533,0.41084 -1.46423,0.93497 -1.46423,1.16473 0,0.22976 1.6416,2.73532 3.648,5.56791 2.0064,2.83259 3.648,5.3195 3.648,5.52645 0,0.21416 -1.3152,0.37629 -3.05238,0.37629 h -3.05241 l -3.7695,-5.28 -3.7695,-5.28 h -3.45013 -3.45008 l -0.192,5.184 -0.192,5.184 -2.592,0.11354 -2.592,0.11355 z m 17.17129,-1.0428 c 4.16609,-1.97693 3.43461,-8.13697 -1.11161,-9.36113 -0.79687,-0.21458 -3.48349,-0.34143 -5.97027,-0.28188 l -4.52141,0.10827 -0.10883,4.58564 c -0.0599,2.52211 -0.0219,4.81171 0.0839,5.088 0.311,0.81046 9.86814,0.6963 11.62817,-0.1389 z m 15.34625,16.51879 c -0.37136,-0.37135 -0.31457,-30.175455 0.0586,-30.763351 0.23985,-0.37786 2.8626,-0.463193 11.80213,-0.384 l 11.49373,0.101821 0.11827,1.853833 c 0.19066,2.988887 0.32041,2.946167 -8.95027,2.946167 -6.53061,0 -8.2512,0.10754 -8.60847,0.53803 -0.28585,0.3444 -0.40643,1.76089 -0.33504,3.936 l 0.11151,3.39797 7.68,0.192 7.68,0.192 v 2.304 2.304 l -7.37391,0.192 c -4.55451,0.11859 -7.53343,0.35198 -7.79121,0.61043 -0.25832,0.25898 -0.37494,1.79534 -0.30609,4.032 l 0.11121,3.61357 8.832,0.192 8.832,0.192 v 2.304 2.304 l -11.54646,0.10153 c -6.35059,0.0558 -11.66419,-0.0162 -11.808,-0.16 z M 350.88389,78.505789 c -2.92696,-0.70942 -4.73617,-1.672028 -7.04635,-3.749084 -3.3358,-2.999166 -5.14122,-7.270997 -5.14122,-12.164705 0,-4.791698 1.49626,-8.481861 4.7377,-11.684421 2.36758,-2.339175 5.33225,-3.845622 8.84017,-4.491982 4.594,-0.846478 10.54273,0.697459 13.66104,3.545599 1.34458,1.228081 1.31129,1.407068 -0.66453,3.572705 -1.4632,1.603768 -1.58392,1.629181 -2.88334,0.607058 -5.98178,-4.705267 -13.84647,-3.000722 -16.84573,3.651041 -1.19226,2.644193 -1.18645,6.89874 0.0131,9.6 2.86577,6.453362 10.44837,8.331003 16.29124,4.034108 0.86314,-0.63476 1.847,-1.154108 2.18637,-1.154108 0.79263,0 3.07167,2.340131 3.07167,3.154015 0,0.772247 -2.34724,2.661976 -4.83932,3.896064 -3.56581,1.765793 -7.35373,2.159773 -11.3808,1.18371 z M 102.13386,75.552 C 99.594769,72.152813 95.772867,64.731018 94.477639,60.684292 91.291403,50.729426 91.237378,38.478993 94.33645,28.668692 c 2.395534,-7.583195 6.88037,-15.021866 12.43394,-20.6232388 4.67074,-4.7109424 5.16605,-4.5202581 2.30191,0.8861837 -7.16095,13.5172321 -7.15553,21.5166991 0.0238,35.1335731 3.18889,6.048288 4.31919,8.940161 4.93256,12.619941 0.97243,5.833904 -1.43499,12.623297 -6.98826,19.708266 -1.00298,1.279622 -1.98482,2.326583 -2.18187,2.326583 -0.19705,0 -1.42316,-1.4256 -2.72468,-3.168 z m 295.499,2.017632 c -0.32717,-0.632705 -1.64529,-3.699905 -2.92915,-6.816 -6.94107,-16.846971 -9.49245,-23.306822 -9.31727,-23.590276 0.32068,-0.518884 5.38503,-0.375233 5.80436,0.164644 0.20505,0.264 1.43416,3.2448 2.73139,6.624 4.75403,12.3842 6.17687,15.744 6.66743,15.744 0.29038,0 1.51058,-2.644393 2.92366,-6.336 1.33386,-3.4848 3.32594,-8.5824 4.42679,-11.328 l 2.00152,-4.992 2.77321,-0.112823 c 3.33166,-0.135544 3.3615,-0.05692 1.58807,4.188008 -1.59855,3.826352 -6.92259,16.742273 -9.2332,22.399276 -1.03031,2.522554 -2.08846,4.723108 -2.35146,4.890121 -0.263,0.16701 -1.38094,0.306306 -2.48433,0.309539 -1.84262,0.0054 -2.05463,-0.0879 -2.60102,-1.144489 z m -23.82544,0.285592 c -0.10147,-0.26443 -0.13925,-7.30603 -0.0839,-15.648 L 373.82401,47.04 l 2.592,-0.113545 c 2.12945,-0.09328 2.59285,-0.0076 2.59674,0.48 0.003,0.32645 0.005,7.159945 0.005,15.185545 0,8.0256 -0.002,14.8512 -0.005,15.168 -0.006,0.755347 -4.91754,0.845192 -5.20533,0.09522 z m 48.00676,0.01766 c -0.10517,-0.274145 -0.14599,-7.323694 -0.0907,-15.665664 L 421.82401,47.04 h 2.688 2.688 v 15.552 15.552 l -2.59726,0.113664 c -1.86013,0.08141 -2.65156,-0.0278 -2.78857,-0.384776 z m 14.01504,-0.01091 c -0.0307,-1.373257 -0.0522,-29.770276 -0.023,-30.359524 0.03,-0.603829 0.3562,-0.675429 2.62599,-0.576 l 2.592,0.113545 0.20482,13.056 c 0.11267,7.1808 0.24227,13.095694 0.288,13.144208 0.0457,0.04851 3.66878,0.134915 8.05118,0.192 l 7.968,0.103792 v 2.304 2.304 l -10.848,0.101979 c -8.54285,0.08031 -10.85031,-0.0012 -10.85879,-0.384 z M 184.70401,63.168 c -0.38139,-0.45954 -0.38139,-0.69246 0,-1.152 0.42174,-0.508166 8.76712,-0.576 70.86361,-0.576 38.71207,0 70.65891,0.104886 70.99298,0.233084 0.78567,0.30149 0.78567,1.536342 0,1.837832 -0.33407,0.128198 -32.28091,0.233084 -70.99298,0.233084 -62.09649,0 -70.44187,-0.06783 -70.86361,-0.576 z m 284.25601,0.321684 c -0.68341,-0.275754 -0.59478,-1.539479 0.12741,-1.8166 0.79407,-0.304712 140.45511,-0.304712 141.24918,0 0.78566,0.30149 0.78566,1.536342 0,1.837832 -0.72672,0.278876 -140.68493,0.25786 -141.37659,-0.02124 z"
       id="path3954"
       inkscape:connector-curvature="0" />
    <path
       style="fill:#17355c;stroke-width:0.99999994"
       d="m 70.251166,215.2372 c -10.774495,-1.38222 -21.881084,-5.05316 -28.928821,-9.56154 -2.616215,-1.67357 -2.586467,-1.77151 1.301656,-4.28491 20.859015,-13.48388 51.716988,-13.48388 72.575999,0 3.24545,2.09796 3.6638,2.60172 2.78265,3.3508 -2.12806,1.8091 -10.89756,5.74661 -16.86163,7.57089 -10.167998,3.11015 -21.244294,4.15958 -30.869854,2.92476 z M 120.384,198.52058 c -3.44973,-2.55983 -11.25453,-6.70218 -15.43564,-8.19239 -16.059761,-5.72391 -33.87677,-5.95365 -50.043355,-0.64528 -5.694486,1.86981 -11.021568,4.48667 -16.292429,8.00345 -2.984442,1.99126 -4.434757,2.74397 -4.99334,2.59154 -1.484056,-0.40497 -11.347235,-8.85716 -11.347235,-9.72395 0,-1.3286 14.931937,-9.24779 22.573579,-11.97194 18.150064,-6.47028 37.762926,-7.55094 56.33842,-3.1042 6.39434,1.53072 14.11575,4.34447 20.14668,7.34164 6.10519,3.03408 13.44516,7.52533 13.4504,8.23016 0.007,0.93402 -9.91491,9.80626 -10.92184,9.76645 -0.22178,-0.009 -1.78564,-1.04174 -3.47524,-2.29548 z M 13.706546,179.27722 C 11.736963,176.19644 7.9456522,168.43836 6.6003719,164.736 3.6925071,156.73324 2.2985562,148.70517 2.3116335,140.03621 2.3311574,127.09391 4.9468732,114.07746 9.4246659,104.64 c 1.6857131,-3.55283 4.2554941,-7.488 4.8898861,-7.488 0.279016,0 1.512692,1.206966 2.741503,2.682148 3.013206,3.617342 11.891347,12.194382 16.363557,15.808592 7.559061,6.10885 16.051017,11.58277 25.278956,16.29483 5.447401,2.78161 12.962163,6.03152 13.518133,5.8462 0.216845,-0.0723 0.42427,-2.86785 0.493433,-6.65024 0.09641,-5.27281 0.288664,-7.18632 1.001449,-9.96767 0.893276,-3.48562 2.107442,-6.73386 2.517074,-6.73386 0.123168,0 2.418908,2.10402 5.101643,4.6756 10.307763,9.88066 20.65017,18.85883 37.4217,32.48553 9.51132,7.72784 11.27442,9.30287 10.41372,9.30287 -0.13325,0 -3.7421,-1.40855 -8.01965,-3.1301 -4.27756,-1.72156 -8.03111,-3.03274 -8.34123,-2.91373 -0.31012,0.11901 -2.07553,2.66287 -3.92313,5.65304 -1.8476,2.99016 -3.59901,5.52866 -3.89202,5.64109 -0.29301,0.11244 -2.32837,-0.24528 -4.52301,-0.79493 -2.194652,-0.54966 -4.36037,-0.99937 -4.812707,-0.99937 -1.133434,0 -1.40145,-0.80943 -2.523279,-7.62055 -0.533795,-3.24089 -1.067171,-6.04889 -1.185278,-6.24 -0.263589,-0.4265 -27.311359,-0.4716 -27.574407,-0.046 -0.102474,0.16581 -0.653614,3.14661 -1.224749,6.624 -0.571139,3.47739 -1.185185,6.48318 -1.364544,6.67953 -0.284018,0.31092 -8.225814,2.10585 -9.424608,2.13006 -0.243591,0.005 -2.041402,-2.5123 -3.995137,-5.5938 -1.95373,-3.08151 -3.784684,-5.69195 -4.068787,-5.80097 -0.539312,-0.20695 -2.049066,0.35267 -11.269183,4.17714 -14.212742,5.8954 -13.823661,5.70997 -13.829349,6.59057 -0.003,0.4554 0.623476,3.45504 1.392041,6.66587 0.768564,3.21083 1.299974,6.09173 1.180911,6.402 -0.329884,0.85967 -3.32982,2.47283 -5.135449,2.76151 l -1.607845,0.25705 z m 420.193924,-2.57027 c -4.70185,-1.22759 -8.32332,-4.2842 -10.48739,-8.85157 -1.12919,-2.38326 -1.20388,-2.8093 -1.18629,-6.76738 0.0242,-5.47354 0.83182,-7.67397 4.09682,-11.16426 9.48603,-10.14058 26.26887,-5.13449 28.38647,8.46729 1.30802,8.40159 -3.88723,16.27264 -12.16351,18.42833 -2.87865,0.7498 -5.47292,0.71607 -8.6461,-0.11241 z m 9.15924,-5.66885 c 2.45925,-1.22549 4.45563,-3.49547 5.29398,-6.01951 0.85767,-2.58222 0.59758,-7.16409 -0.53122,-9.35822 -4.11917,-8.00666 -15.23248,-7.75137 -18.96358,0.43563 -1.8364,4.0296 -0.91664,9.62952 2.10478,12.81502 2.99789,3.16065 8.1898,4.07365 12.09604,2.12708 z m -172.1003,5.01096 c -0.30864,-0.8043 -0.31462,-29.48622 -0.006,-30.28965 0.20139,-0.52482 1.23267,-0.60685 7.584,-0.60326 7.8959,0.004 9.93159,0.33947 12.53595,2.06295 5.69155,3.76649 5.53856,13.45881 -0.2706,17.14287 -2.60507,1.65209 -3.94114,1.9735 -9.33043,2.24459 l -4.80002,0.24144 -0.192,4.8 -0.192,4.8 -2.5446,0.11247 c -2.06311,0.0912 -2.5899,-0.006 -2.784,-0.51141 z m 15.36286,-15.26742 c 0.66124,-0.34433 1.65484,-1.16392 2.208,-1.82131 1.95501,-2.3234 1.04647,-6.41142 -1.76128,-7.92493 -0.99888,-0.53844 -2.19392,-0.68373 -5.68098,-0.69064 l -4.416,-0.009 -0.10727,5.34638 c -0.0804,4.00915 0.0156,5.43102 0.384,5.68481 0.82561,0.56878 8.01984,0.11937 9.37353,-0.58555 z m 14.90914,15.37758 c -0.10146,-0.26443 -0.13924,-7.30603 -0.0839,-15.648 l 0.10054,-15.16722 h 2.496 2.496 l 0.192,13.056 0.192,13.056 8.064,0.21171 c 4.4352,0.11644 8.1072,0.24604 8.16,0.288 0.0528,0.042 0.096,1.11309 0.096,2.38029 v 2.304 H 312.18 c -8.26629,0 -10.80687,-0.11156 -10.94855,-0.48078 z m 25.4587,0.25889 c -0.26561,-0.26562 0.29265,-1.61352 7.53139,-18.18426 3.08451,-7.06099 5.82652,-12.97674 6.09336,-13.14612 0.26683,-0.16939 1.38837,-0.31062 2.4923,-0.31385 1.69343,-0.005 2.10069,0.13688 2.60561,0.90749 0.55661,0.8495 1.55026,3.07351 7.4839,16.75063 1.23696,2.8512 3.03884,6.99642 4.00418,9.21161 0.96534,2.21519 1.75516,4.25315 1.75516,4.52882 0,0.37653 -0.69176,0.47315 -2.78077,0.38839 l -2.78078,-0.11282 -1.47781,-3.45471 c -0.81279,-1.90009 -1.67824,-3.58225 -1.92322,-3.73812 -0.24498,-0.15587 -3.42622,-0.28606 -7.06942,-0.28929 -7.70124,-0.007 -7.3742,-0.15202 -9.11621,4.04698 -0.60857,1.46692 -1.26834,2.88314 -1.46616,3.14714 -0.3615,0.48245 -4.90791,0.70172 -5.35153,0.25811 z m 20.22249,-12.29919 c 0.33408,-0.1282 0.60321,-0.4306 0.59808,-0.672 -0.017,-0.79846 -4.52314,-10.80751 -4.85214,-10.77753 -0.42025,0.0383 -2.05371,3.32252 -3.78691,7.61393 -1.08541,2.68748 -1.27339,3.48755 -0.8783,3.73812 0.57778,0.36643 8.00682,0.44761 8.91927,0.0975 z m 25.42281,11.93014 c -0.13167,-0.34313 -0.2394,-6.20725 -0.2394,-13.03138 0,-10.95979 -0.0709,-12.43471 -0.60741,-12.6406 -0.33407,-0.12819 -2.47558,-0.23308 -4.75891,-0.23308 -3.4314,0 -4.19194,-0.10536 -4.38459,-0.60741 -0.33236,-0.8661 -0.27752,-3.33606 0.0868,-3.91 0.24018,-0.37838 3.05424,-0.46305 12.76212,-0.384 l 12.45399,0.10141 v 2.304 2.304 l -4.47483,0.10787 c -3.09925,0.0747 -4.60266,0.26189 -4.89067,0.60892 -0.27513,0.33152 -0.45013,4.7777 -0.51717,13.14014 l -0.10133,12.63907 -2.5446,0.11247 c -2.0631,0.0912 -2.58989,-0.006 -2.784,-0.51141 z m 21.50399,0 c -0.35555,-0.92658 -0.27871,-29.85657 0.0808,-30.42297 0.23981,-0.37774 2.82432,-0.46323 11.61013,-0.384 l 11.30169,0.10191 v 2.304 2.304 l -8.64,0.192 -8.64,0.192 v 4.224 4.224 l 7.68,0.192 7.68,0.192 v 2.304 2.304 l -7.68,0.192 -7.68,0.192 -0.192,6.144 -0.192,6.144 -2.54461,0.11247 c -2.06308,0.0912 -2.58989,-0.006 -2.784,-0.51141 z m 67.90403,0.11016 c -0.10149,-0.26443 -0.13924,-7.30603 -0.084,-15.648 l 0.10054,-15.16722 h 9.024 9.024 l 2.20016,1.08041 c 3.76808,1.85034 5.44612,4.68601 5.39159,9.11111 -0.0457,3.71079 -1.92952,6.71417 -5.25216,8.37358 -0.96998,0.48443 -1.76359,1.01211 -1.76359,1.17262 0,0.16051 1.6416,2.59694 3.648,5.41428 2.0064,2.81734 3.648,5.35228 3.648,5.63321 0,0.37857 -0.72818,0.51079 -2.81307,0.51079 -3.31108,0 -2.9007,0.3405 -7.52022,-6.24 l -3.16742,-4.512 h -3.42567 -3.42562 v 4.76859 c 0,2.62273 -0.10488,5.04193 -0.23309,5.376 -0.29806,0.77677 -5.05882,0.88942 -5.3515,0.12663 z m 17.17808,-16.18273 c 1.9119,-0.92074 2.70313,-2.24096 2.70313,-4.51038 0,-2.18078 -0.7344,-3.49102 -2.49223,-4.44654 -1.01257,-0.55039 -2.21012,-0.67707 -6.42839,-0.67999 l -5.184,-0.003 -0.10799,4.96194 c -0.0805,3.70209 0.0169,5.04756 0.384,5.29914 0.27061,0.18547 2.56559,0.2753 5.09999,0.19964 3.40715,-0.10172 4.9774,-0.31547 6.02549,-0.82023 z m 15.46868,16.2004 c -0.10518,-0.27415 -0.146,-7.3237 -0.0907,-15.66567 l 0.10054,-15.16722 2.91751,-0.1111 2.91748,-0.1111 4.56983,7.1191 c 2.5134,3.91551 4.76448,7.1191 5.00245,7.1191 0.23796,0 2.35146,-2.99986 4.6967,-6.66635 2.34524,-3.66649 4.51127,-6.87154 4.81348,-7.12233 0.34003,-0.28222 1.55036,-0.41242 3.17599,-0.34165 l 2.62656,0.11433 v 15.552 15.552 l -2.592,0.11354 -2.592,0.11355 v -10.57755 c 0,-8.63587 -0.0954,-10.57754 -0.51959,-10.57754 -0.28578,0 -2.47116,2.9376 -4.85641,6.528 -2.38526,3.5904 -4.54526,6.528 -4.8,6.528 -0.25475,0 -2.41475,-2.9376 -4.8,-6.528 -2.38526,-3.5904 -4.48148,-6.528 -4.65823,-6.528 -0.17679,0 -0.36741,4.7088 -0.42359,10.464 l -0.10218,10.464 -2.59726,0.11366 c -1.86014,0.0814 -2.65156,-0.0278 -2.78857,-0.38477 z M 350.57245,78.402947 c -7.22735,-1.886973 -11.866,-8.084679 -11.87988,-15.872736 -0.0184,-10.293232 9.09968,-17.886022 19.30663,-16.077071 3.01046,0.533534 6.37157,2.03997 8.0644,3.614431 1.23954,1.15286 1.11549,1.598081 -1.01681,3.64921 l -1.35225,1.300781 -2.03927,-1.337937 c -2.63405,-1.728165 -4.15453,-2.224489 -6.80056,-2.219873 -5.83335,0.01018 -10.18157,4.768458 -10.17286,11.132248 0.005,3.7293 1.09267,6.307235 3.61921,8.578802 3.82302,3.43723 9.31279,3.476667 13.78956,0.09907 0.72743,-0.548828 1.60073,-0.99787 1.94067,-0.99787 0.79344,0 3.07272,2.339578 3.07272,3.154015 0,1.478695 -5.3166,4.587018 -8.99852,5.260938 -3.03654,0.55579 -4.53253,0.499388 -7.53304,-0.284006 z m 47.20537,-0.537251 c -1.48697,-2.778432 -12.5659,-30.463185 -12.29803,-30.731071 0.56867,-0.568685 5.50511,-0.163764 5.86849,0.481375 0.17844,0.3168 2.21145,5.4144 4.51783,11.328 2.5427,6.519636 4.39258,10.752 4.69943,10.752 0.29695,0 1.42937,-2.380128 2.74053,-5.76 1.22896,-3.168 3.22929,-8.2656 4.44523,-11.328 l 2.21076,-5.568 2.763,-0.112823 c 2.44324,-0.09977 2.76288,-0.03314 2.76219,0.576 0,0.980671 -12.24296,30.566458 -12.79212,30.915667 -0.25033,0.159168 -1.35625,0.292044 -2.4576,0.295277 -1.68023,0.0049 -2.07606,-0.131605 -2.45971,-0.848425 z m -23.9704,-0.01048 c -0.10147,-0.26443 -0.13925,-7.30603 -0.0839,-15.648 L 373.82401,47.04 h 2.496 2.496 l 0.10031,15.648 0.10031,15.648 h -2.51236 c -1.65782,0 -2.57511,-0.16353 -2.69685,-0.480776 z m 48,0 c -0.10149,-0.26443 -0.13923,-7.30603 -0.0839,-15.648 L 421.82401,47.04 l 2.46102,-0.115907 c 1.70907,-0.08049 2.55794,0.03683 2.77813,0.384 0.36138,0.569699 0.45239,29.491124 0.0958,30.4205 -0.29806,0.776766 -5.05882,0.889417 -5.35151,0.126631 z m 14.21035,0.0061 c -0.10276,-0.267778 -0.14158,-7.31212 -0.0863,-15.65409 L 436.03201,47.04 h 2.496 2.496 l 0.20483,13.056 c 0.11267,7.1808 0.24227,13.095694 0.288,13.144209 0.0457,0.04851 3.66877,0.134914 8.05117,0.192 l 7.968,0.103791 v 2.304 2.304 l -10.66571,0.10209 c -8.33388,0.07977 -10.70657,-0.0043 -10.85253,-0.384775 z"
       id="path3952"
       inkscape:connector-curvature="0" />
  </g>
</svg>
